<mxfile host="app.diagrams.net" modified="2023-10-28T11:58:18.615Z" agent="Mozilla/5.0 (Windows NT 10.0; Win64; x64; rv:109.0) Gecko/20100101 Firefox/119.0" version="22.0.8" etag="x2LBR9wlwuG4vLR7wILe" type="github">
  <diagram name="Page-1" id="Fre9W52nTvGRokObqQ8m">
    <mxGraphModel>
      <root>
        <mxCell id="0" />
        <mxCell id="1" parent="0" />
      </root>
    </mxGraphModel>
  </diagram>
</mxfile>
